<?xml version="1.0" encoding="UTF-8"?>
<svg width="1733px" height="376px" viewBox="0 0 1733 376" version="1.1" xmlns="http://www.w3.org/2000/svg" xmlns:xlink="http://www.w3.org/1999/xlink">
    <!-- Generator: Sketch 53 (72520) - https://sketchapp.com -->
    <title>verint_foresee_logo</title>
    <desc>Created with Sketch.</desc>
    <g id="verint_foresee_logo" stroke="none" stroke-width="1" fill="none" fill-rule="evenodd">
        <g id="foresee_logo_svg" transform="translate(896.000000, 0.000000)" fill="#EE2737" fill-rule="nonzero">
            <polygon id="Path" points="0 230 19.5789474 230 19.5789474 198.942308 59.9605263 198.942308 59.9605263 180.144231 19.5789474 180.144231 19.5789474 163.798077 62 163.798077 62 145 0 145"></polygon>
            <path d="M139.066038,143.30591 C134.141509,142.89803 129.627358,142.89803 125.113208,143.30591 C103.773585,146.568946 89,164.107764 89,185.725377 C89,212.237543 107.056604,231 132.910377,231 C157.533019,231 176,211.421784 176,185.725377 C176,164.515643 160.40566,146.568946 139.066038,143.30591 Z M132.910377,211.013905 C119.367925,211.013905 109.929245,200.816918 109.929245,186.133256 C109.929245,173.488992 116.90566,164.923523 127.985849,162.884125 C129.216981,162.884125 130.858491,162.476246 132.089623,162.476246 C133.320755,162.476246 134.962264,162.476246 136.193396,162.884125 C147.683962,164.923523 155.070755,173.896871 155.070755,186.133256 C155.481132,200.816918 146.45283,211.013905 132.910377,211.013905 Z" id="Shape"></path>
            <path d="M689,268 C682.09375,268 676,273.6875 676,281 C676,287.90625 681.6875,294 689,294 C696.3125,294 702,288.3125 702,281 C701.59375,273.6875 695.90625,268 689,268 Z M689,291.5625 C682.90625,291.5625 678.03125,286.6875 678.03125,280.59375 C678.03125,274.5 682.90625,269.625 689,269.625 C695.09375,269.625 699.96875,274.5 699.96875,280.59375 C699.96875,286.6875 694.6875,291.5625 689,291.5625 Z" id="Shape"></path>
            <path d="M695,277.583333 C695,274.666667 692.962963,273 690.111111,273 L684,273 L684,288 L686.037037,288 L686.037037,282.166667 L688.481481,282.166667 L692.148148,288 L694.592593,288 L690.518519,282.166667 C692.148148,282.166667 695,280.916667 695,277.583333 Z M686.444444,280.5 L686.444444,275.083333 L690.518519,275.083333 C691.740741,275.083333 693.37037,276.333333 693.37037,278 C693.37037,279.666667 692.148148,280.5 690.518519,280.5 L686.444444,280.5 Z" id="Shape"></path>
            <path d="M274.813472,174.831731 C274.813472,159.711538 264.170984,145 240.020725,145 L204,145 L204,230 L223.647668,230 L223.647668,203.4375 L236.746114,203.4375 L258.849741,230 L283,230 L259.668394,199.759615 C269.492228,195.264423 274.813472,186.274038 274.813472,174.831731 Z M255.165803,174.831731 C255.165803,177.283654 254.756477,178.918269 253.119171,180.552885 C250.663212,183.004808 246.160622,184.230769 240.430052,184.230769 L224.056995,184.230769 L224.056995,164.206731 L240.430052,164.206731 C249.025907,164.206731 254.756477,168.293269 255.165803,174.831731 L255.165803,174.831731 Z" id="Shape"></path>
            <polygon id="Path" points="327.819355 196.899038 369.935484 196.899038 369.935484 178.100962 327.819355 178.100962 327.819355 164.206731 372 164.206731 372 145 308 145 308 230 372 230 372 210.793269 327.819355 210.793269"></polygon>
            <path d="M395,0 L395,376 L837,187.592191 L395,0 Z M454.178209,230.819957 C436.628809,230.819957 423.160665,225.110629 414.590028,214.099783 L414.181902,213.284165 L432.547553,205.535792 C437.036934,209.206074 443.566944,213.284165 454.178209,213.284165 C462.748846,213.284165 474.584488,211.245119 474.584488,202.681128 C474.584488,198.195228 468.870729,196.156182 454.99446,194.932755 L452.545706,194.932755 C437.44506,193.709328 416.22253,192.078091 416.22253,170.464208 C416.22253,152.520607 434.996307,143.140998 453.361958,143.140998 C471.727608,143.140998 481.930748,148.850325 488.868883,155.78308 C489.685134,156.598698 491.317636,158.637744 491.317636,158.637744 L474.584488,165.570499 C471.727608,162.715835 465.605725,159.045553 453.770083,159.045553 C440.710065,159.045553 435.812558,164.754881 435.812558,169.64859 C435.812558,175.765727 441.934441,176.989154 456.218837,177.804772 L457.851339,177.804772 C472.951985,179.0282 493.76639,182.698482 493.76639,202.681128 C493.76639,222.255965 473.768236,230.819957 454.178209,230.819957 Z M584.370268,229.596529 L521.518929,229.596529 L521.518929,144.772234 L584.370268,144.772234 L584.370268,161.900217 L539.476454,161.900217 L539.476454,178.212581 L582.32964,178.212581 L582.32964,195.748373 L539.476454,195.748373 L539.476454,212.060738 L584.370268,212.060738 L584.370268,229.596529 Z M619.469067,229.596529 L619.469067,144.772234 L682.320406,144.772234 L682.320406,161.900217 L637.426593,161.900217 L637.426593,178.212581 L680.279778,178.212581 L680.279778,195.748373 L637.426593,195.748373 L637.426593,212.060738 L682.320406,212.060738 L682.320406,229.596529 L619.469067,229.596529 Z" id="Shape"></path>
        </g>
        <rect id="Divider" fill="#F0F0F0" x="798" y="0" width="10" height="376"></rect>
        <g id="verint_logo_svg" transform="translate(0.000000, 127.000000)" fill="#007BFF" fill-rule="nonzero">
            <polygon id="Path" points="0 0 30.818609 0 61.068609 79.9349442 61.4097744 79.9349442 92.1146617 0 121 0 70.5075188 122 48.9003759 122"></polygon>
            <polygon id="Path" points="151 0 233.823219 0 233.823219 24.830855 177.889182 24.830855 177.889182 47.6208178 230.759894 47.6208178 230.759894 72.33829 177.889182 72.33829 177.889182 97.169145 237 97.169145 237 122 151 122"></polygon>
            <path d="M297.913094,50.615814 L313.811124,50.615814 C316.195829,50.615814 318.807648,50.5023256 321.533024,50.3888372 C324.258401,50.1618605 326.643105,49.707907 328.914253,48.8 C331.071842,47.892093 332.88876,46.6437209 334.365006,44.7144186 C335.841251,42.8986047 336.522596,40.2883721 336.522596,36.9972093 C336.522596,33.9330233 335.841251,31.4362791 334.592121,29.6204651 C333.34299,27.8046512 331.753187,26.3293023 329.709154,25.4213953 C327.778679,24.4 325.507532,23.8325581 323.00927,23.492093 C320.511008,23.1516279 318.012746,22.9246512 315.628042,22.9246512 L298.026651,22.9246512 L298.026651,50.615814 L297.913094,50.615814 Z M271,0 L318.239861,0 C324.485516,0 330.390498,0.56744186 335.954809,1.81581395 C341.519119,3.06418605 346.402086,4.99348837 350.603708,7.83069767 C354.80533,10.667907 358.098494,14.4130233 360.596756,19.1795349 C363.095017,23.9460465 364.344148,29.8474419 364.344148,36.9972093 C364.344148,45.6223256 362.073001,52.8855814 357.644264,59.0139535 C353.215527,65.0288372 346.6292,68.8874419 337.998841,70.4762791 L369,122 L336.74971,122 L311.199305,73.2 L297.913094,73.2 L297.913094,122 L271,122 L271,0 L271,0 Z" id="Shape"></path>
            <rect id="Rectangle" x="400" y="0" width="27" height="122"></rect>
            <polygon id="Path" points="469 0 505.619608 0 557.592157 84.8104089 558.047059 84.8104089 558.047059 0 585 0 585 122 549.745098 122 496.294118 35.1486989 495.952941 35.1486989 495.952941 122 469 122"></polygon>
            <polygon id="Path" points="648.992949 23.8104089 614 23.8104089 614 0 711 0 711 23.8104089 676.007051 23.8104089 676.007051 122 648.992949 122"></polygon>
            <path d="M701.48,112.706667 L702.386667,112.706667 C702.5,112.706667 702.726667,112.706667 702.84,112.706667 C702.953333,112.706667 703.18,112.706667 703.293333,112.593333 C703.406667,112.48 703.52,112.48 703.633333,112.253333 C703.746667,112.026667 703.746667,111.913333 703.746667,111.686667 C703.746667,111.46 703.746667,111.233333 703.633333,111.12 C703.52,111.006667 703.406667,110.893333 703.293333,110.78 C703.18,110.666667 702.953333,110.666667 702.84,110.666667 C702.726667,110.666667 702.5,110.666667 702.386667,110.666667 L701.48,110.666667 L701.48,112.706667 Z M699.213333,108.966667 L702.386667,108.966667 C702.613333,108.966667 702.953333,108.966667 703.406667,108.966667 C703.86,108.966667 704.2,109.08 704.653333,109.306667 C705.106667,109.533333 705.446667,109.76 705.673333,110.213333 C706.013333,110.553333 706.126667,111.12 706.126667,111.913333 C706.126667,112.366667 706.013333,112.706667 705.9,113.046667 C705.786667,113.386667 705.673333,113.613333 705.446667,113.726667 C705.22,113.953333 704.993333,114.066667 704.766667,114.18 C704.54,114.293333 704.313333,114.293333 703.973333,114.406667 L706.24,117.92 L703.86,117.92 L701.82,114.52 L701.48,114.52 L701.48,117.92 L699.1,117.92 L699.1,108.966667 L699.213333,108.966667 Z M696.38,113.5 C696.38,114.406667 696.493333,115.2 696.833333,115.993333 C697.173333,116.786667 697.626667,117.466667 698.193333,118.033333 C698.76,118.6 699.44,119.053333 700.12,119.393333 C700.913333,119.733333 701.706667,119.96 702.5,119.96 C703.406667,119.96 704.2,119.733333 704.88,119.393333 C705.673333,119.053333 706.24,118.6 706.806667,118.033333 C707.373333,117.466667 707.826667,116.786667 708.166667,115.993333 C708.506667,115.2 708.62,114.406667 708.62,113.5 C708.62,112.593333 708.506667,111.8 708.166667,111.006667 C707.826667,110.213333 707.373333,109.533333 706.806667,108.966667 C706.24,108.4 705.56,107.946667 704.88,107.606667 C704.086667,107.266667 703.293333,107.04 702.5,107.04 C701.593333,107.04 700.8,107.266667 700.12,107.606667 C699.326667,107.946667 698.76,108.4 698.193333,108.966667 C697.626667,109.533333 697.173333,110.213333 696.833333,111.006667 C696.493333,111.8 696.38,112.593333 696.38,113.5 L696.38,113.5 Z M694,113.5 C694,112.366667 694.226667,111.233333 694.68,110.213333 C695.133333,109.193333 695.7,108.286667 696.493333,107.493333 C697.286667,106.7 698.193333,106.133333 699.213333,105.68 C700.233333,105.226667 701.366667,105 702.5,105 C703.633333,105 704.766667,105.226667 705.786667,105.68 C706.806667,106.133333 707.713333,106.7 708.506667,107.493333 C709.3,108.286667 709.866667,109.193333 710.32,110.213333 C710.773333,111.233333 711,112.366667 711,113.5 C711,114.633333 710.773333,115.766667 710.32,116.786667 C709.866667,117.806667 709.3,118.713333 708.506667,119.506667 C707.713333,120.3 706.806667,120.866667 705.786667,121.32 C704.766667,121.773333 703.633333,122 702.5,122 C701.366667,122 700.233333,121.773333 699.213333,121.32 C698.193333,120.866667 697.286667,120.3 696.493333,119.506667 C695.7,118.713333 695.133333,117.806667 694.68,116.786667 C694.226667,115.766667 694,114.633333 694,113.5 L694,113.5 Z" id="Shape"></path>
        </g>
    </g>
</svg>